<svg width="41" height="41" viewBox="0 0 41 41" fill="none" xmlns="http://www.w3.org/2000/svg">
<path d="M20.5 0C15.0631 0 9.84952 2.16011 6.00565 6.00565C2.16011 9.84928 0 15.0631 0 20.5C0 25.9369 2.16011 31.1505 6.00565 34.9943C9.84928 38.8399 15.0631 41 20.5 41C25.9369 41 31.1505 38.8399 34.9943 34.9943C38.8399 31.1507 41 25.9369 41 20.5C40.9942 15.065 38.8322 9.85494 34.9884 6.01156C31.1447 2.16817 25.9349 0.00590381 20.5 0ZM20.5 32.7996C19.6717 32.7996 18.9241 32.2999 18.607 31.5351C18.288 30.7683 18.4648 29.8861 19.0509 29.3C19.6371 28.7138 20.5192 28.5389 21.2841 28.856C22.0509 29.1731 22.5506 29.9207 22.5506 30.749C22.5506 31.2929 22.3334 31.8157 21.949 32.2C21.5646 32.5843 21.0439 32.7996 20.5 32.7996ZM22.5506 24.5992C22.5506 25.7312 21.632 26.6498 20.5 26.6498C19.368 26.6498 18.4494 25.7312 18.4494 24.5992V10.251C18.4494 9.11902 19.368 8.20039 20.5 8.20039C21.632 8.20039 22.5506 9.11902 22.5506 10.251V24.6012V24.5992Z" fill="#4B4B4B"/>
</svg>
