<svg width="16" height="16" viewBox="0 0 16 16" fill="none" xmlns="http://www.w3.org/2000/svg">
<path fill-rule="evenodd" clip-rule="evenodd" d="M8 0C3.58172 0 0 3.58172 0 8C0 12.4183 3.58172 16 8 16C12.4183 16 16 12.4183 16 8C16 3.58172 12.4183 0 8 0ZM3.00004 6.62515C3.00004 4.90693 4.25004 3.62515 7.25004 3.62515H10.1563C12.875 3.62515 13 3.95325 13 4.50015C13 5.12512 12.75 5.37515 12.125 5.37515H7.25004C5.75004 5.37515 5.00004 6.12343 5.00004 6.87515V7.12515H12.125C12.625 7.12515 13 7.45328 13 8.00015C13 8.54703 12.625 8.87515 12.125 8.87515H5.00004V9.12515C5.00004 9.87687 5.75004 10.6252 7.25004 10.6252H12.125C12.75 10.6252 13 10.8752 13 11.5002C13 12.0471 12.875 12.3752 10.1563 12.3752H7.25004C4.25004 12.3752 3.00004 11.0934 3.00004 9.37515V6.62515Z" fill="white"/>
</svg>
