<svg width="8" height="6" viewBox="0 0 8 6" fill="none" xmlns="http://www.w3.org/2000/svg">
<path d="M7.92427 2.57403C7.85689 2.49046 6.15729 0.526484 4.01167 0.526484C3.56565 0.526484 3.14493 0.610057 2.74955 0.743908L5.52623 2.83324C5.58506 2.66609 5.61892 2.49046 5.61892 2.30666C5.61892 2.01415 5.53477 1.74679 5.40001 1.51272C6.21612 1.88063 6.88074 2.47381 7.20048 2.79147C7.02365 2.96711 6.7377 3.22598 6.38437 3.48519L6.94805 3.91155C7.5285 3.46039 7.89036 3.04256 7.92427 3.00888C8.02517 2.88352 8.02517 2.69939 7.92427 2.57403Z" fill="white"/>
<path d="M7.46981 4.98099L0.948818 0.0668011C0.797296 -0.0419111 0.586941 -0.0167723 0.477489 0.133725C0.368038 0.284224 0.393348 0.493157 0.544869 0.601869L1.52924 1.34554C0.671081 1.89726 0.12416 2.53219 0.0820887 2.57398C-0.0273629 2.69934 -0.0273629 2.88314 0.0820887 3.0085C0.149468 3.09207 1.84907 5.05604 4.00326 5.05604C4.6764 5.05604 5.29888 4.86376 5.8458 4.60488L7.05727 5.52419C7.11611 5.56597 7.19204 5.59111 7.25908 5.59111C7.35998 5.59111 7.46089 5.54932 7.52827 5.45726C7.64659 5.2986 7.61278 5.08971 7.46981 4.98099ZM4.00325 4.37933C2.55609 4.37933 1.28539 3.26773 0.805861 2.79144C1.04974 2.54072 1.51252 2.13135 2.10148 1.78004L2.42949 2.02227C2.41306 2.12281 2.40451 2.21488 2.40451 2.3151C2.40451 3.19262 3.11972 3.90299 4.00321 3.90299C4.25563 3.90299 4.4913 3.84455 4.70165 3.73584L5.22326 4.12857C4.84463 4.28723 4.43251 4.37933 4.00325 4.37933Z" fill="white"/>
</svg>
