<svg width="11" height="7" viewBox="0 0 11 7" fill="none" xmlns="http://www.w3.org/2000/svg">
<path d="M10.8716 2.9596L8.77394 1.20742C8.43865 0.918835 8.06897 0.677367 7.67349 0.489315C6.6431 0.00369103 5.49106 -0.124672 4.38587 0.123081C4.02134 0.202522 3.66627 0.322806 3.32668 0.482134C2.9312 0.670186 2.56152 0.911654 2.22622 1.20024L0.128533 2.95955C0.0472888 3.02777 0 3.13055 0 3.23961C0 3.34867 0.0472855 3.45146 0.128533 3.51967L2.22622 5.27185C3.15559 6.04785 4.31027 6.47069 5.50008 6.47069C6.6899 6.47069 7.84461 6.0479 8.77394 5.27185L10.8716 3.51967C10.9529 3.45145 11.0002 3.34867 11.0002 3.23961C11.0002 3.13055 10.9529 3.02782 10.8716 2.9596ZM8.34741 4.71179C7.53023 5.36526 6.52945 5.71937 5.49997 5.71937C4.4705 5.71937 3.46974 5.36526 2.65254 4.71179L0.89181 3.23972L2.65254 1.80351L2.79698 1.69579C2.76903 1.84973 2.7527 2.00592 2.74883 2.16256C2.74883 3.18856 3.27327 4.13695 4.1244 4.65031C4.97554 5.16331 6.02445 5.16331 6.87554 4.65031C7.72668 4.13686 8.25112 3.18848 8.25112 2.16256C8.24897 1.9938 8.23306 1.8255 8.20297 1.65989C8.25112 1.70297 8.29926 1.7317 8.34741 1.7676L10.1081 3.23967L8.34741 4.71179Z" fill="#4B4B4B"/>
</svg>
