<svg width="136" height="14" viewBox="0 0 136 14" fill="none" xmlns="http://www.w3.org/2000/svg">
<g filter="url(#filter0_d_48_261)">
<path d="M10.4536 7.66539L0.75026 13.153C0.416811 13.349 0 13.104 0 12.7284V1.75312C0 1.37745 0.416811 1.13246 0.75026 1.32849L10.4536 6.81614C10.7871 7.0121 10.7871 7.46943 10.4536 7.66539Z" fill="#6D6D6D"/>
<path fill-rule="evenodd" clip-rule="evenodd" d="M49.7405 13.1088V1.37279C49.7405 0.381907 46.9672 0.381907 46.9672 1.37279V13.1088C46.9672 14.0995 49.7405 14.0995 49.7405 13.1088ZM44.3288 13.1088V1.37279C44.3288 0.381907 41.5553 0.381907 41.5553 1.37279V13.1088C41.5553 14.0995 44.3288 14.0995 44.3288 13.1088Z" fill="#6D6D6D"/>
<path fill-rule="evenodd" clip-rule="evenodd" d="M128.209 2.66748C128.347 2.63155 128.445 2.50626 128.445 2.3627V0.944482C128.445 0.77069 128.586 0.629628 128.759 0.629628H130.019C130.193 0.629628 130.334 0.770692 130.334 0.944482V2.3627C130.334 2.50627 130.431 2.63155 130.57 2.66748C131.003 2.77925 131.411 2.95078 131.787 3.17277C131.911 3.2458 132.068 3.22596 132.17 3.12426L133.174 2.12096C133.296 1.99786 133.496 1.99786 133.619 2.12096L134.509 3.01123C134.632 3.13433 134.632 3.33358 134.509 3.45637L133.506 4.45998C133.404 4.56168 133.384 4.71907 133.457 4.8428C133.679 5.21842 133.851 5.62732 133.962 6.06021C133.998 6.19908 134.124 6.29633 134.267 6.29633H135.685C135.859 6.29633 136 6.4374 136 6.61111V7.87038C136 8.04417 135.859 8.18524 135.685 8.18524H134.267C134.124 8.18524 133.998 8.28248 133.962 8.42137C133.851 8.85424 133.679 9.26315 133.457 9.63877C133.384 9.76249 133.404 9.91989 133.506 10.0216L134.509 11.0252C134.632 11.148 134.632 11.3472 134.509 11.4703L133.619 12.3606C133.496 12.4837 133.296 12.4837 133.174 12.3606L132.17 11.3573C132.068 11.2556 131.911 11.2358 131.787 11.3088C131.411 11.5308 131.003 11.7023 130.57 11.8141C130.431 11.85 130.334 11.9753 130.334 12.1189V13.5371C130.334 13.7109 130.193 13.8519 130.019 13.8519H128.759C128.586 13.8519 128.445 13.7109 128.445 13.5371V12.1189C128.445 11.9753 128.347 11.85 128.209 11.8141C127.776 11.7023 127.367 11.5308 126.991 11.3088C126.867 11.2358 126.71 11.2556 126.608 11.3573L125.605 12.3606C125.482 12.4837 125.283 12.4837 125.16 12.3606L124.269 11.4703C124.146 11.3472 124.146 11.148 124.269 11.0252L125.273 10.0216C125.374 9.91989 125.394 9.7625 125.321 9.63877C125.099 9.26315 124.928 8.85425 124.816 8.42137C124.78 8.28249 124.655 8.18524 124.511 8.18524H123.093C122.919 8.18524 122.778 8.04417 122.778 7.87038V6.61111C122.778 6.43739 122.919 6.29633 123.093 6.29633H124.511C124.655 6.29633 124.78 6.19909 124.816 6.06021C124.928 5.62734 125.099 5.21842 125.321 4.8428C125.394 4.71908 125.374 4.56168 125.273 4.45998L124.269 3.45637C124.146 3.33359 124.146 3.13434 124.269 3.01123L125.16 2.12096C125.283 1.99786 125.482 1.99786 125.605 2.12096L126.608 3.12426C126.71 3.22596 126.867 3.2458 126.991 3.17277C127.367 2.95078 127.776 2.77925 128.209 2.66748ZM129.389 5.03698C128.173 5.03698 127.185 6.02459 127.185 7.24071C127.185 8.45685 128.173 9.44445 129.389 9.44445C130.605 9.44445 131.593 8.45683 131.593 7.24071C131.593 6.02465 130.605 5.03698 129.389 5.03698Z" fill="#6D6D6D"/>
<path d="M90.5657 6.08025L90.3088 6.03649V3.90768C90.3088 1.74971 88.4955 0 86.259 0C84.0226 0 82.2093 1.74971 82.2093 3.90768V6.02191L81.9524 6.06567C81.1667 6.21148 80.5924 6.88219 80.5924 7.66957V12.2188C80.5924 13.1228 81.348 13.8519 82.2848 13.8519H90.2333C91.1701 13.8519 91.9257 13.1228 91.9257 12.2188L91.9258 7.66957C91.9258 6.8968 91.3515 6.22606 90.5658 6.08025H90.5657ZM87.2412 11.446C87.2866 11.5773 87.1657 11.7231 87.0297 11.7231H85.4883C85.3372 11.7231 85.2315 11.5918 85.2768 11.446L85.7906 9.59424C85.3826 9.4193 85.0804 9.02558 85.0804 8.55901C85.0804 7.93201 85.6092 7.42168 86.259 7.42168C86.9088 7.42168 87.4377 7.93201 87.4377 8.55901C87.4377 9.02558 87.1506 9.4193 86.7275 9.59424L87.2412 11.446ZM88.3595 5.64282L86.5915 5.29287C86.3648 5.24911 86.1532 5.24911 85.9266 5.29287L84.1586 5.64282L84.1585 3.9077C84.1585 2.78499 85.0954 1.88095 86.259 1.88095C87.4225 1.88095 88.3594 2.78494 88.3594 3.9077L88.3595 5.64282Z" fill="#6D6D6D"/>
</g>
<defs>
<filter id="filter0_d_48_261" x="-3.77778" y="-1.25926" width="143.556" height="21.4074" filterUnits="userSpaceOnUse" color-interpolation-filters="sRGB">
<feFlood flood-opacity="0" result="BackgroundImageFix"/>
<feColorMatrix in="SourceAlpha" type="matrix" values="0 0 0 0 0 0 0 0 0 0 0 0 0 0 0 0 0 0 127 0" result="hardAlpha"/>
<feOffset dy="2.5098"/>
<feGaussianBlur stdDeviation="1.88235"/>
<feComposite in2="hardAlpha" operator="out"/>
<feColorMatrix type="matrix" values="0 0 0 0 0 0 0 0 0 0 0 0 0 0 0 0 0 0 0.25 0"/>
<feBlend mode="normal" in2="BackgroundImageFix" result="effect1_dropShadow_48_261"/>
<feBlend mode="normal" in="SourceGraphic" in2="effect1_dropShadow_48_261" result="shape"/>
</filter>
</defs>
</svg>
