<svg width="8" height="5" viewBox="0 0 8 5" fill="none" xmlns="http://www.w3.org/2000/svg">
<path d="M7.90664 2.1345L6.38105 0.870808C6.1372 0.662675 5.86834 0.488526 5.58072 0.3529C4.83134 0.00266201 3.9935 -0.0899149 3.18972 0.0887673C2.92461 0.146061 2.66638 0.232812 2.4194 0.347721C2.13178 0.483347 1.86293 0.657496 1.61907 0.865629L0.0934788 2.13446C0.0343919 2.18366 0 2.25779 0 2.33644C0 2.4151 0.0343895 2.48923 0.0934788 2.53843L1.61907 3.80212C2.29498 4.36179 3.13474 4.66674 4.00006 4.66674C4.86538 4.66674 5.70517 4.36182 6.38105 3.80212L7.90664 2.53843C7.96573 2.48923 8.00012 2.4151 8.00012 2.33644C8.00012 2.25779 7.96573 2.1837 7.90664 2.1345ZM6.07084 3.3982C5.47653 3.86949 4.74869 4.12488 3.99998 4.12488C3.25127 4.12488 2.52345 3.86949 1.92912 3.3982L0.648589 2.33653L1.92912 1.30071L2.03416 1.22303C2.01384 1.33405 2.00196 1.4467 1.99915 1.55967C1.99915 2.29963 2.38056 2.98362 2.99957 3.35386C3.61857 3.72384 4.38142 3.72384 5.0004 3.35386C5.61941 2.98356 6.00081 2.29957 6.00081 1.55967C5.99925 1.43795 5.98768 1.31657 5.9658 1.19713C6.00081 1.22821 6.03583 1.24892 6.07084 1.27482L7.35137 2.33649L6.07084 3.3982Z" fill="white"/>
</svg>
