<svg width="12" height="8" viewBox="0 0 12 8" fill="none" xmlns="http://www.w3.org/2000/svg">
<path d="M11.2622 3.68305C11.1665 3.56347 8.75106 0.753334 5.70177 0.753334C5.06789 0.753334 4.46997 0.872914 3.90806 1.06443L7.85421 4.05394C7.93782 3.81478 7.98594 3.56347 7.98594 3.30049C7.98594 2.88196 7.86636 2.4994 7.67484 2.16448C8.83467 2.6909 9.77921 3.53965 10.2336 3.99417C9.98231 4.24548 9.57593 4.61589 9.07378 4.98678L9.87488 5.59683C10.6998 4.95129 11.2141 4.35344 11.2622 4.30525C11.4056 4.12588 11.4056 3.86242 11.2622 3.68305Z" fill="white"/>
<path d="M10.6159 7.12702L1.34844 0.0955818C1.1331 -0.0599681 0.834146 -0.0239985 0.678596 0.191339C0.523046 0.406679 0.559016 0.70563 0.774354 0.86118L2.17332 1.92525C0.953724 2.71467 0.176453 3.62317 0.116662 3.68296C-0.0388875 3.86233 -0.0388875 4.12531 0.116662 4.30468C0.21242 4.42426 2.62785 7.2344 5.68934 7.2344C6.64598 7.2344 7.53064 6.95927 8.30791 6.58886L10.0296 7.90424C10.1132 7.96403 10.2211 8 10.3164 8C10.4598 8 10.6032 7.94021 10.699 7.80848C10.8671 7.58147 10.8191 7.28257 10.6159 7.12702ZM5.68932 6.26614C3.63266 6.26614 1.82676 4.6756 1.14527 3.99411C1.49186 3.63537 2.14955 3.04962 2.98657 2.54695L3.45274 2.89354C3.42938 3.03741 3.41724 3.16914 3.41724 3.31254C3.41724 4.56813 4.43367 5.58456 5.68926 5.58456C6.048 5.58456 6.38292 5.50095 6.68187 5.3454L7.42317 5.90734C6.88506 6.13435 6.29937 6.26614 5.68932 6.26614Z" fill="white"/>
</svg>
