<svg width="136" height="14" viewBox="0 0 136 14" fill="none" xmlns="http://www.w3.org/2000/svg">
<g filter="url(#filter0_d_48_515)">
<path d="M10.4536 7.66518L0.75026 13.1528C0.416811 13.3488 0 13.1038 0 12.7282V1.75292C0 1.37725 0.416811 1.13226 0.75026 1.32829L10.4536 6.81593C10.7871 7.01189 10.7871 7.46922 10.4536 7.66518Z" fill="#6D6D6D"/>
<path fill-rule="evenodd" clip-rule="evenodd" d="M49.7407 13.1088V1.37278C49.7407 0.381899 46.9674 0.381899 46.9674 1.37278V13.1088C46.9674 14.0995 49.7407 14.0995 49.7407 13.1088ZM44.329 13.1088V1.37278C44.329 0.381899 41.5556 0.381899 41.5556 1.37278V13.1088C41.5556 14.0995 44.329 14.0995 44.329 13.1088Z" fill="#6D6D6D"/>
<path fill-rule="evenodd" clip-rule="evenodd" d="M128.208 2.66747C128.347 2.63154 128.444 2.50625 128.444 2.36269V0.944473C128.444 0.770682 128.586 0.62962 128.759 0.62962H130.019C130.192 0.62962 130.333 0.770684 130.333 0.944473V2.36269C130.333 2.50626 130.431 2.63154 130.569 2.66747C131.002 2.77924 131.411 2.95077 131.787 3.17276C131.911 3.24579 132.068 3.22595 132.17 3.12425L133.173 2.12095C133.296 1.99785 133.495 1.99785 133.618 2.12095L134.509 3.01122C134.632 3.13432 134.632 3.33357 134.509 3.45636L133.505 4.45997C133.404 4.56167 133.384 4.71906 133.457 4.84279C133.679 5.21841 133.85 5.6273 133.962 6.06019C133.998 6.19907 134.123 6.29632 134.267 6.29632H135.685C135.859 6.29632 136 6.43738 136 6.61109V7.87037C136 8.04416 135.859 8.18522 135.685 8.18522H134.267C134.123 8.18522 133.998 8.28247 133.962 8.42135C133.85 8.85422 133.679 9.26313 133.457 9.63875C133.384 9.76248 133.404 9.91987 133.505 10.0216L134.509 11.0252C134.632 11.148 134.632 11.3472 134.509 11.4703L133.618 12.3606C133.495 12.4837 133.296 12.4837 133.173 12.3606L132.17 11.3573C132.068 11.2556 131.911 11.2358 131.787 11.3088C131.411 11.5308 131.002 11.7023 130.569 11.8141C130.431 11.85 130.333 11.9753 130.333 12.1188V13.5371C130.333 13.7109 130.192 13.8518 130.019 13.8518H128.759C128.586 13.8518 128.444 13.7109 128.444 13.5371V12.1188C128.444 11.9753 128.347 11.85 128.208 11.8141C127.775 11.7023 127.367 11.5308 126.991 11.3088C126.867 11.2358 126.71 11.2556 126.608 11.3573L125.605 12.3606C125.482 12.4837 125.282 12.4837 125.159 12.3606L124.269 11.4703C124.146 11.3472 124.146 11.148 124.269 11.0252L125.272 10.0216C125.374 9.91987 125.394 9.76249 125.321 9.63875C125.099 9.26313 124.927 8.85424 124.816 8.42135C124.78 8.28247 124.654 8.18522 124.511 8.18522H123.093C122.919 8.18522 122.778 8.04416 122.778 7.87037V6.61109C122.778 6.43738 122.919 6.29632 123.093 6.29632H124.511C124.654 6.29632 124.78 6.19908 124.816 6.06019C124.927 5.62732 125.099 5.21841 125.321 4.84279C125.394 4.71907 125.374 4.56167 125.272 4.45997L124.269 3.45636C124.146 3.33358 124.146 3.13433 124.269 3.01122L125.159 2.12095C125.282 1.99785 125.482 1.99785 125.605 2.12095L126.608 3.12425C126.71 3.22595 126.867 3.24579 126.991 3.17276C127.367 2.95077 127.775 2.77924 128.208 2.66747ZM129.389 5.03696C128.173 5.03696 127.185 6.02457 127.185 7.2407C127.185 8.45684 128.173 9.44443 129.389 9.44443C130.605 9.44443 131.593 8.45682 131.593 7.2407C131.593 6.02464 130.605 5.03696 129.389 5.03696Z" fill="white"/>
<path d="M90.5658 6.08024L90.309 6.03648V3.90767C90.309 1.7497 88.4956 0 86.2592 0C84.0228 0 82.2094 1.7497 82.2094 3.90767V6.0219L81.9526 6.06566C81.1668 6.21147 80.5926 6.88218 80.5926 7.66956V12.2188C80.5926 13.1228 81.3481 13.8519 82.285 13.8519H90.2334C91.1703 13.8519 91.9259 13.1228 91.9259 12.2188L91.9259 7.66956C91.9259 6.8968 91.3517 6.22605 90.5659 6.08024H90.5658ZM87.2414 11.446C87.2867 11.5772 87.1658 11.7231 87.0298 11.7231H85.4885C85.3374 11.7231 85.2316 11.5918 85.2769 11.446L85.7907 9.59424C85.3827 9.41929 85.0805 9.02557 85.0805 8.55901C85.0805 7.932 85.6094 7.42167 86.2592 7.42167C86.909 7.42167 87.4379 7.932 87.4379 8.55901C87.4379 9.02557 87.1508 9.41929 86.7277 9.59424L87.2414 11.446ZM88.3596 5.64282L86.5916 5.29287C86.365 5.2491 86.1534 5.2491 85.9267 5.29287L84.1587 5.64282L84.1587 3.90769C84.1587 2.78499 85.0956 1.88095 86.2591 1.88095C87.4227 1.88095 88.3596 2.78494 88.3596 3.90769L88.3596 5.64282Z" fill="#6D6D6D"/>
</g>
<defs>
<filter id="filter0_d_48_515" x="-3.77778" y="-1.25926" width="143.556" height="21.4072" filterUnits="userSpaceOnUse" color-interpolation-filters="sRGB">
<feFlood flood-opacity="0" result="BackgroundImageFix"/>
<feColorMatrix in="SourceAlpha" type="matrix" values="0 0 0 0 0 0 0 0 0 0 0 0 0 0 0 0 0 0 127 0" result="hardAlpha"/>
<feOffset dy="2.5098"/>
<feGaussianBlur stdDeviation="1.88235"/>
<feComposite in2="hardAlpha" operator="out"/>
<feColorMatrix type="matrix" values="0 0 0 0 0 0 0 0 0 0 0 0 0 0 0 0 0 0 0.25 0"/>
<feBlend mode="normal" in2="BackgroundImageFix" result="effect1_dropShadow_48_515"/>
<feBlend mode="normal" in="SourceGraphic" in2="effect1_dropShadow_48_515" result="shape"/>
</filter>
</defs>
</svg>
