<svg width="136" height="14" viewBox="0 0 136 14" fill="none" xmlns="http://www.w3.org/2000/svg">
<g filter="url(#filter0_d_48_445)">
<path d="M10.5023 8.33377L0.75375 13.8469C0.41875 14.0438 0 13.7977 0 13.4203V2.39399C0 2.01658 0.41875 1.77045 0.75375 1.96739L10.5023 7.48057C10.8373 7.67744 10.8373 8.1369 10.5023 8.33377Z" fill="white"/>
<path fill-rule="evenodd" clip-rule="evenodd" d="M49.3393 13.17V1.3794C49.3393 0.383905 46.553 0.383905 46.553 1.3794V13.17C46.553 14.1654 49.3393 14.1654 49.3393 13.17ZM43.9024 13.17V1.3794C43.9024 0.383905 41.116 0.383905 41.116 1.3794V13.17C41.116 14.1654 43.9024 14.1654 43.9024 13.17Z" fill="#6D6D6D"/>
<path fill-rule="evenodd" clip-rule="evenodd" d="M128.172 2.68011C128.311 2.64401 128.409 2.51814 128.409 2.37391V0.949096C128.409 0.774497 128.551 0.632778 128.725 0.632778H129.991C130.165 0.632778 130.307 0.774499 130.307 0.949096V2.37391C130.307 2.51815 130.405 2.64401 130.544 2.68011C130.979 2.7924 131.39 2.96473 131.767 3.18775C131.891 3.26112 132.05 3.24119 132.152 3.13902L133.16 2.13104C133.283 2.00737 133.484 2.00737 133.607 2.13104L134.502 3.02546C134.625 3.14913 134.625 3.34931 134.502 3.47267L133.494 4.48095C133.391 4.58312 133.372 4.74124 133.445 4.86555C133.668 5.24292 133.84 5.65372 133.953 6.08862C133.989 6.22814 134.115 6.32585 134.259 6.32585H135.684C135.858 6.32585 136 6.46757 136 6.64208V7.90722C136 8.08182 135.858 8.22353 135.684 8.22353H134.259C134.115 8.22353 133.989 8.32123 133.953 8.46076C133.84 8.89565 133.668 9.30646 133.445 9.68383C133.372 9.80813 133.391 9.96626 133.494 10.0684L134.502 11.0767C134.625 11.2001 134.625 11.4002 134.502 11.5239L133.607 12.4183C133.484 12.542 133.283 12.542 133.16 12.4183L132.152 11.4104C132.05 11.3082 131.891 11.2883 131.767 11.3616C131.39 11.5847 130.979 11.757 130.544 11.8693C130.405 11.9054 130.307 12.0312 130.307 12.1755V13.6003C130.307 13.7749 130.165 13.9165 129.991 13.9165H128.725C128.551 13.9165 128.409 13.7749 128.409 13.6003V12.1755C128.409 12.0312 128.311 11.9054 128.172 11.8693C127.737 11.757 127.326 11.5847 126.949 11.3616C126.825 11.2883 126.666 11.3082 126.564 11.4104L125.556 12.4183C125.433 12.542 125.232 12.542 125.109 12.4183L124.214 11.5239C124.091 11.4003 124.091 11.2001 124.214 11.0767L125.222 10.0684C125.324 9.96626 125.344 9.80814 125.271 9.68383C125.048 9.30646 124.876 8.89567 124.763 8.46076C124.727 8.32124 124.601 8.22353 124.457 8.22353H123.032C122.858 8.22353 122.716 8.08181 122.716 7.90722V6.64208C122.716 6.46756 122.858 6.32585 123.032 6.32585H124.457C124.601 6.32585 124.727 6.22815 124.763 6.08862C124.876 5.65374 125.048 5.24292 125.271 4.86555C125.344 4.74125 125.324 4.58312 125.222 4.48095L124.214 3.47267C124.091 3.34932 124.091 3.14914 124.214 3.02546L125.109 2.13104C125.232 2.00737 125.433 2.00737 125.556 2.13104L126.564 3.13902C126.666 3.24119 126.825 3.26112 126.949 3.18775C127.326 2.96473 127.737 2.7924 128.172 2.68011ZM129.358 5.06063C128.136 5.06063 127.144 6.05284 127.144 7.27462C127.144 8.49642 128.136 9.4886 129.358 9.4886C130.58 9.4886 131.572 8.4964 131.572 7.27462C131.572 6.0529 130.58 5.06063 129.358 5.06063Z" fill="#6D6D6D"/>
<path d="M90.3545 6.10854L90.0965 6.06457V3.92586C90.0965 1.75785 88.2747 0 86.0279 0C83.781 0 81.9593 1.75785 81.9593 3.92586V6.04992L81.7012 6.09389C80.9118 6.24037 80.3349 6.9142 80.3349 7.70525V12.2756C80.3349 13.1838 81.094 13.9163 82.0352 13.9163H90.0206C90.9618 13.9163 91.7209 13.1839 91.7209 12.2756L91.7209 7.70525C91.7209 6.92889 91.144 6.25502 90.3546 6.10854H90.3545ZM87.0146 11.4993C87.0602 11.6311 86.9387 11.7776 86.8021 11.7776H85.2536C85.1018 11.7776 84.9955 11.6458 85.041 11.4993L85.5572 9.63888C85.1473 9.46312 84.8437 9.06756 84.8437 8.59883C84.8437 7.96891 85.3751 7.4562 86.0279 7.4562C86.6807 7.4562 87.212 7.96891 87.212 8.59883C87.212 9.06756 86.9236 9.46312 86.4986 9.63888L87.0146 11.4993ZM88.1381 5.66907L86.3618 5.31749C86.1341 5.27353 85.9216 5.27353 85.6939 5.31749L83.9176 5.66907L83.9176 3.92588C83.9176 2.79795 84.8588 1.8897 86.0278 1.8897C87.1967 1.8897 88.138 2.7979 88.138 3.92588L88.1381 5.66907Z" fill="#6D6D6D"/>
</g>
<defs>
<filter id="filter0_d_48_445" x="-3.79536" y="-1.26512" width="143.59" height="21.5072" filterUnits="userSpaceOnUse" color-interpolation-filters="sRGB">
<feFlood flood-opacity="0" result="BackgroundImageFix"/>
<feColorMatrix in="SourceAlpha" type="matrix" values="0 0 0 0 0 0 0 0 0 0 0 0 0 0 0 0 0 0 127 0" result="hardAlpha"/>
<feOffset dy="2.52061"/>
<feGaussianBlur stdDeviation="1.89046"/>
<feComposite in2="hardAlpha" operator="out"/>
<feColorMatrix type="matrix" values="0 0 0 0 0 0 0 0 0 0 0 0 0 0 0 0 0 0 0.25 0"/>
<feBlend mode="normal" in2="BackgroundImageFix" result="effect1_dropShadow_48_445"/>
<feBlend mode="normal" in="SourceGraphic" in2="effect1_dropShadow_48_445" result="shape"/>
</filter>
</defs>
</svg>
