<svg width="138" height="18" viewBox="0 0 138 18" fill="none" xmlns="http://www.w3.org/2000/svg">
<g filter="url(#filter0_d_48_388)">
<g filter="url(#filter1_d_48_388)">
<path d="M15.3854 9.42834L1.10421 17.5049C0.613451 17.7933 0 17.4328 0 16.88V0.726823C0 0.173921 0.613451 -0.186639 1.10421 0.101871L15.3854 8.17843C15.8761 8.46684 15.8761 9.13993 15.3854 9.42834Z" fill="#B8B8B8"/>
</g>
<path fill-rule="evenodd" clip-rule="evenodd" d="M51.6711 15.0099V3.26436C51.6711 2.27268 48.8956 2.27268 48.8956 3.26436V15.0099C48.8956 16.0014 51.6711 16.0014 51.6711 15.0099ZM46.255 15.0099V3.26436C46.255 2.27268 43.4794 2.27268 43.4794 3.26436V15.0099C43.4794 16.0014 46.255 16.0014 46.255 15.0099Z" fill="#6D6D6D"/>
<path fill-rule="evenodd" clip-rule="evenodd" d="M130.202 4.56009C130.341 4.52413 130.438 4.39875 130.438 4.25507V2.83571C130.438 2.66178 130.579 2.5206 130.753 2.5206H132.014C132.188 2.5206 132.329 2.66178 132.329 2.83571V4.25507C132.329 4.39875 132.426 4.52413 132.565 4.56009C132.998 4.67196 133.407 4.84362 133.783 5.06579C133.907 5.13888 134.065 5.11903 134.167 5.01725L135.171 4.01313C135.294 3.88993 135.493 3.88993 135.616 4.01313L136.507 4.90412C136.631 5.02732 136.631 5.22673 136.507 5.34962L135.503 6.35404C135.402 6.45582 135.382 6.61333 135.455 6.73717C135.677 7.11309 135.849 7.52231 135.96 7.95555C135.996 8.09454 136.122 8.19187 136.266 8.19187H137.685C137.859 8.19187 138 8.33305 138 8.5069V9.76719C138 9.94112 137.859 10.0823 137.685 10.0823H136.266C136.122 10.0823 135.996 10.1796 135.96 10.3186C135.849 10.7518 135.677 11.1611 135.455 11.537C135.382 11.6608 135.402 11.8183 135.503 11.9201L136.507 12.9245C136.631 13.0474 136.631 13.2468 136.507 13.37L135.616 14.261C135.493 14.3842 135.294 14.3842 135.171 14.261L134.167 13.2569C134.065 13.1551 133.907 13.1353 133.783 13.2084C133.407 13.4305 132.998 13.6022 132.565 13.7141C132.426 13.75 132.329 13.8754 132.329 14.0191V15.4385C132.329 15.6124 132.188 15.7535 132.014 15.7535H130.753C130.579 15.7535 130.438 15.6124 130.438 15.4385V14.0191C130.438 13.8754 130.341 13.75 130.202 13.7141C129.769 13.6022 129.36 13.4305 128.984 13.2084C128.86 13.1353 128.702 13.1551 128.6 13.2569L127.596 14.261C127.473 14.3842 127.274 14.3842 127.151 14.261L126.26 13.37C126.136 13.2468 126.136 13.0474 126.26 12.9245L127.264 11.9201C127.365 11.8183 127.385 11.6608 127.312 11.537C127.09 11.1611 126.918 10.7519 126.807 10.3186C126.771 10.1796 126.645 10.0823 126.501 10.0823H125.082C124.908 10.0823 124.767 9.94111 124.767 9.76719V8.5069C124.767 8.33304 124.908 8.19187 125.082 8.19187H126.501C126.645 8.19187 126.771 8.09455 126.807 7.95555C126.918 7.52233 127.09 7.11309 127.312 6.73717C127.385 6.61334 127.365 6.45582 127.264 6.35404L126.26 5.34962C126.136 5.22674 126.136 5.02733 126.26 4.90412L127.151 4.01313C127.274 3.88993 127.473 3.88993 127.596 4.01313L128.6 5.01725C128.702 5.11903 128.86 5.13888 128.984 5.06579C129.36 4.84362 129.769 4.67196 130.202 4.56009ZM131.383 6.9315C130.166 6.9315 129.178 7.91991 129.178 9.13701C129.178 10.3541 130.166 11.3425 131.383 11.3425C132.601 11.3425 133.589 10.3541 133.589 9.13701C133.589 7.91997 132.601 6.9315 131.383 6.9315Z" fill="#6D6D6D"/>
<path d="M92.5291 7.97554L92.272 7.93174V5.80121C92.272 3.64151 90.4573 1.89039 88.219 1.89039C85.9808 1.89039 84.166 3.64151 84.166 5.80121V7.91715L83.9089 7.96094C83.1225 8.10687 82.5478 8.77812 82.5478 9.56613V14.119C82.5478 15.0237 83.304 15.7534 84.2416 15.7534H92.1965C93.1341 15.7534 93.8903 15.0238 93.8903 14.119L93.8903 9.56613C93.8903 8.79275 93.3156 8.12146 92.5292 7.97554H92.5291ZM89.202 13.3456C89.2474 13.477 89.1264 13.6229 88.9903 13.6229H87.4477C87.2965 13.6229 87.1906 13.4915 87.236 13.3456L87.7502 11.4924C87.3419 11.3173 87.0394 10.9232 87.0394 10.4563C87.0394 9.82879 87.5687 9.31804 88.219 9.31804C88.8694 9.31804 89.3987 9.82879 89.3987 10.4563C89.3987 10.9232 89.1113 11.3173 88.6879 11.4924L89.202 13.3456ZM90.3211 7.53776L88.5517 7.18752C88.3249 7.14372 88.1131 7.14372 87.8863 7.18752L86.1169 7.53776L86.1168 5.80123C86.1168 4.67763 87.0544 3.77286 88.219 3.77286C89.3834 3.77286 90.3211 4.67758 90.3211 5.80123L90.3211 7.53776Z" fill="#6D6D6D"/>
</g>
<defs>
<filter id="filter0_d_48_388" x="-3.78082" y="-1.26027" width="145.562" height="25.1684" filterUnits="userSpaceOnUse" color-interpolation-filters="sRGB">
<feFlood flood-opacity="0" result="BackgroundImageFix"/>
<feColorMatrix in="SourceAlpha" type="matrix" values="0 0 0 0 0 0 0 0 0 0 0 0 0 0 0 0 0 0 127 0" result="hardAlpha"/>
<feOffset dy="2.5124"/>
<feGaussianBlur stdDeviation="1.8843"/>
<feComposite in2="hardAlpha" operator="out"/>
<feColorMatrix type="matrix" values="0 0 0 0 0 0 0 0 0 0 0 0 0 0 0 0 0 0 0.25 0"/>
<feBlend mode="normal" in2="BackgroundImageFix" result="effect1_dropShadow_48_388"/>
<feBlend mode="normal" in="SourceGraphic" in2="effect1_dropShadow_48_388" result="shape"/>
</filter>
<filter id="filter1_d_48_388" x="-2.52055" y="0" width="20.7946" height="22.6478" filterUnits="userSpaceOnUse" color-interpolation-filters="sRGB">
<feFlood flood-opacity="0" result="BackgroundImageFix"/>
<feColorMatrix in="SourceAlpha" type="matrix" values="0 0 0 0 0 0 0 0 0 0 0 0 0 0 0 0 0 0 127 0" result="hardAlpha"/>
<feOffset dy="2.5124"/>
<feGaussianBlur stdDeviation="1.2562"/>
<feComposite in2="hardAlpha" operator="out"/>
<feColorMatrix type="matrix" values="0 0 0 0 0 0 0 0 0 0 0 0 0 0 0 0 0 0 0.25 0"/>
<feBlend mode="normal" in2="BackgroundImageFix" result="effect1_dropShadow_48_388"/>
<feBlend mode="normal" in="SourceGraphic" in2="effect1_dropShadow_48_388" result="shape"/>
</filter>
</defs>
</svg>
