<svg width="73" height="25" viewBox="0 0 73 25" fill="none" xmlns="http://www.w3.org/2000/svg">
<g id="Group 22">
<g id="Group">
<path id="Vector" d="M17 0.163696H19.0673C19.5995 0.163696 20.0088 0.286505 20.3158 0.552591C20.6229 0.818677 20.7661 1.16664 20.7661 1.61694C20.7661 2.06724 20.6229 2.41519 20.3158 2.68128C20.0088 2.94737 19.5995 3.07018 19.0673 3.07018H17.5936V5.34214H17V0.163696ZM19.0059 2.57894C19.3948 2.57894 19.6813 2.49707 19.8655 2.33332C20.0498 2.16958 20.1521 1.92396 20.1521 1.61694C20.1521 1.30991 20.0498 1.0643 19.8655 0.90055C19.6813 0.736805 19.3743 0.654932 19.0059 0.654932H17.5936V2.55847H19.0059V2.57894Z" fill="white"/>
<path id="Vector_2" d="M22.1376 5.15794C21.8715 4.99419 21.6668 4.78951 21.5235 4.50295C21.3803 4.2164 21.3188 3.88891 21.3188 3.50001C21.3188 3.11112 21.3803 2.78363 21.5235 2.49707C21.6668 2.21052 21.8715 1.98537 22.1376 1.84209C22.4037 1.67835 22.7107 1.61694 23.0382 1.61694C23.3861 1.61694 23.6932 1.69882 23.9388 1.84209C24.2049 2.00584 24.4095 2.21052 24.5528 2.49707C24.6961 2.78363 24.7575 3.11112 24.7575 3.50001C24.7575 3.88891 24.6961 4.2164 24.5528 4.50295C24.4095 4.78951 24.2049 5.01466 23.9388 5.15794C23.6727 5.32168 23.3657 5.38309 23.0382 5.38309C22.7107 5.38309 22.4037 5.32168 22.1376 5.15794ZM23.8774 4.54389C24.0616 4.29827 24.1639 3.95031 24.1639 3.50001C24.1639 3.04971 24.0616 2.70176 23.8569 2.45614C23.6522 2.21052 23.3861 2.08771 23.0382 2.08771C22.6697 2.08771 22.4037 2.21052 22.199 2.45614C21.9943 2.70176 21.892 3.04971 21.892 3.50001C21.892 3.95031 21.9943 4.31874 22.1785 4.54389C22.3832 4.78951 22.6493 4.91232 23.0177 4.91232C23.3861 4.91232 23.6932 4.78951 23.8774 4.54389Z" fill="white"/>
<path id="Vector_3" d="M30.6117 1.67834H31.1848L29.8339 5.32168H29.2608L28.2169 2.4766L27.173 5.32168H26.5999L25.249 1.67834H25.8631L26.8865 4.62576L27.9508 1.67834H28.4625L29.5064 4.62576L30.6117 1.67834Z" fill="white"/>
<path id="Vector_4" d="M34.9707 3.50002H32.2894C32.2894 3.97078 32.3917 4.31874 32.6169 4.54389C32.8215 4.78951 33.1286 4.89185 33.5379 4.89185C33.9678 4.89185 34.3567 4.74858 34.7046 4.46202L34.9093 4.89185C34.7456 5.03513 34.5409 5.15794 34.2953 5.23981C34.0496 5.32168 33.7836 5.36262 33.5379 5.36262C32.9648 5.36262 32.5145 5.19888 32.187 4.85092C31.8595 4.52343 31.6958 4.05266 31.6958 3.45908C31.6958 3.09065 31.7777 2.76316 31.921 2.47661C32.0642 2.19005 32.2689 1.96491 32.535 1.80116C32.8011 1.63741 33.0876 1.55554 33.4356 1.55554C33.9268 1.55554 34.2953 1.71929 34.5818 2.02631C34.8479 2.33333 34.9912 2.78363 34.9912 3.33627V3.50002H34.9707ZM32.6783 2.33333C32.4941 2.51755 32.3713 2.78363 32.3098 3.11112H34.4385C34.4181 2.76316 34.3157 2.49708 34.1315 2.33333C33.9678 2.14912 33.7221 2.06725 33.4151 2.06725C33.1081 2.06725 32.883 2.14912 32.6783 2.33333Z" fill="white"/>
<path id="Vector_5" d="M37.8978 1.63758L37.8773 2.16975C37.775 2.12881 37.6317 2.10834 37.4884 2.10834C37.1405 2.10834 36.8744 2.21069 36.7107 2.43583C36.5469 2.66098 36.4446 2.92707 36.4446 3.23409V5.32185H35.8715V2.70192C35.8715 2.33349 35.851 1.98554 35.8101 1.67851H36.3627L36.4241 2.35396C36.506 2.10834 36.6697 1.92413 36.8744 1.78085C37.0791 1.65804 37.3042 1.57617 37.5703 1.57617C37.6931 1.59664 37.7955 1.61711 37.8978 1.63758Z" fill="white"/>
<path id="Vector_6" d="M41.48 3.50002H38.7987C38.7987 3.97078 38.901 4.31874 39.1261 4.54389C39.3308 4.78951 39.6378 4.89185 40.0472 4.89185C40.477 4.89185 40.8659 4.74858 41.2139 4.46202L41.4186 4.89185C41.2548 5.03513 41.0502 5.15794 40.8045 5.23981C40.5589 5.32168 40.2928 5.36262 40.0472 5.36262C39.4741 5.36262 39.0238 5.19888 38.6963 4.85092C38.3688 4.52343 38.2051 4.05266 38.2051 3.45908C38.2051 3.09065 38.287 2.76316 38.4302 2.47661C38.5735 2.19005 38.7782 1.96491 39.0443 1.80116C39.3104 1.63741 39.5969 1.55554 39.9449 1.55554C40.4361 1.55554 40.8045 1.71929 41.0911 2.02631C41.3572 2.33333 41.5005 2.78363 41.5005 3.33627V3.50002H41.48ZM39.1876 2.33333C39.0033 2.51755 38.8805 2.78363 38.8191 3.11112H40.9478C40.9273 2.76316 40.825 2.49708 40.6408 2.33333C40.477 2.14912 40.2314 2.06725 39.9244 2.06725C39.6174 2.06725 39.3922 2.14912 39.1876 2.33333Z" fill="white"/>
<path id="Vector_7" d="M45.5934 0V5.34219H45.0203V4.68721C44.918 4.91236 44.7542 5.09657 44.5291 5.21938C44.3039 5.34219 44.0583 5.40359 43.7718 5.40359C43.4443 5.40359 43.1782 5.32172 42.9326 5.15798C42.687 4.99423 42.5027 4.76908 42.3595 4.48253C42.2162 4.19597 42.1548 3.86848 42.1548 3.47959C42.1548 3.09069 42.2162 2.7632 42.3595 2.49712C42.5027 2.23103 42.687 1.98541 42.9326 1.84213C43.1782 1.67839 43.4647 1.61698 43.7922 1.61698C44.0788 1.61698 44.3244 1.67839 44.5496 1.8012C44.7747 1.92401 44.918 2.08775 45.0203 2.3129V0H45.5934ZM44.7133 4.54393C44.8975 4.29831 44.9999 3.95035 44.9999 3.50006C44.9999 3.04976 44.8975 2.7018 44.7133 2.45618C44.5291 2.21056 44.2425 2.08775 43.8946 2.08775C43.5262 2.08775 43.2601 2.21056 43.0554 2.45618C42.8507 2.7018 42.7484 3.04976 42.7484 3.47959C42.7484 3.90942 42.8507 4.27785 43.0554 4.52346C43.2601 4.76908 43.5262 4.89189 43.8946 4.89189C44.263 4.91236 44.5291 4.78955 44.7133 4.54393Z" fill="white"/>
<path id="Vector_8" d="M51.3043 1.84213C51.55 2.00588 51.7342 2.21056 51.8774 2.49712C52.0207 2.78367 52.0821 3.11116 52.0821 3.47959C52.0821 3.84801 52.0207 4.19597 51.8774 4.48253C51.7342 4.76908 51.55 4.99423 51.3043 5.15798C51.0587 5.32172 50.7722 5.40359 50.4447 5.40359C50.1581 5.40359 49.9125 5.34219 49.6873 5.21938C49.4827 5.09657 49.3189 4.91236 49.1961 4.68721V5.36266H48.6025V0H49.1961V2.33337C49.2985 2.08775 49.4622 1.92401 49.6873 1.78073C49.9125 1.65792 50.1581 1.59652 50.4447 1.59652C50.7722 1.59652 51.0587 1.67839 51.3043 1.84213ZM51.1815 4.52346C51.3862 4.27785 51.4885 3.92989 51.4885 3.47959C51.4885 3.02929 51.3862 2.7018 51.202 2.45618C50.9973 2.21056 50.7312 2.08775 50.3628 2.08775C49.9944 2.08775 49.7283 2.21056 49.5236 2.45618C49.3394 2.7018 49.237 3.04976 49.237 3.50006C49.237 3.95035 49.3394 4.29831 49.5236 4.54393C49.7078 4.78955 49.9944 4.91236 50.3628 4.91236C50.6903 4.91236 50.9768 4.78955 51.1815 4.52346Z" fill="white"/>
<path id="Vector_9" d="M56.1559 1.67834L54.457 5.66964C54.2728 6.079 54.0477 6.38602 53.7816 6.5907C53.5155 6.77492 53.1676 6.91819 52.7787 7.00007L52.6559 6.54977C53.0038 6.46789 53.2699 6.36555 53.4336 6.24274C53.6179 6.11994 53.7611 5.91525 53.8635 5.64917L54.0068 5.32168L52.4512 1.69881H53.0652L54.2933 4.70763L55.5419 1.69881H56.1559V1.67834Z" fill="white"/>
</g>
<path id="Vector_10" d="M13.6203 11.6243C14.0608 11.6771 14.4837 11.7124 14.9242 11.7828C15.77 11.9414 16.0519 12.3643 15.9109 13.2277C15.8757 13.5449 15.6114 13.8092 15.2942 13.8444C15.1004 13.8796 14.889 13.8973 14.6775 13.8796C11.8935 13.8973 9.10957 13.8973 6.34321 13.8973C5.92033 13.8973 5.51507 13.9325 5.09219 14.003C3.71782 14.232 3.18922 14.7959 3.0835 16.1879C3.04826 16.6225 3.24795 16.8398 3.68258 16.8398H15.0828C15.259 16.8398 15.4352 16.8927 15.5761 16.9808C16.0871 17.2979 15.9638 17.8089 15.9285 18.267C15.9109 18.6371 15.6819 18.8485 15.2942 18.919C15.1356 18.9366 14.9594 18.9542 14.8009 18.9542H3.4359C3.01302 18.9542 3.03064 18.9542 3.04826 19.3771C3.06588 19.7647 3.11874 20.1348 3.18922 20.5048C3.36542 21.192 3.7883 21.6149 4.47548 21.8087C5.23315 22.0201 6.00843 22.073 6.78371 22.073C9.49721 22.0906 12.2107 22.0906 14.9242 22.0906C15.259 22.0906 15.5938 22.1258 15.7876 22.4606C16.1224 22.9892 15.9638 23.694 15.4176 24.0288C15.3471 24.0817 15.259 24.1169 15.1885 24.1345C14.607 24.3283 13.9903 24.3636 13.3736 24.3812C10.8363 24.4341 8.28142 24.4341 5.74413 24.3812C4.95123 24.3636 4.17595 24.2755 3.40066 24.1169C1.58579 23.7469 0.687167 22.813 0.370005 20.9982C0.299525 20.5753 0.264286 20.1524 0.211426 19.7295V16.4169C0.246666 16.0821 0.281904 15.765 0.317145 15.4478C0.563826 13.3863 1.48007 12.3643 3.50638 11.9238C4.2288 11.7652 4.96885 11.73 5.69127 11.6595L13.6203 11.6243Z" fill="white"/>
<path id="Vector_11" d="M9.56771 24.6455C8.29906 24.6455 7.01279 24.6279 5.74415 24.6102C4.95124 24.5926 4.14072 24.5045 3.36544 24.3283C1.44485 23.9231 0.493362 22.954 0.176201 21.0334C0.123341 20.7338 0.0881009 20.4343 0.0528608 20.1524C0.0352407 20.029 0.0176201 19.8881 0 19.7647V16.4169L0.0352423 16.0821C0.0528624 15.8531 0.0881015 15.6416 0.105722 15.4302C0.352403 13.2981 1.35675 12.1881 3.47116 11.7123C4.035 11.589 4.59884 11.5361 5.14507 11.4833C5.32127 11.4657 5.49747 11.448 5.67367 11.4304H13.6556C13.7965 11.448 13.9199 11.4657 14.0608 11.4657C14.3604 11.5009 14.6599 11.5361 14.9771 11.589C15.9462 11.7828 16.2986 12.2938 16.14 13.2805C16.0871 13.6858 15.77 14.0206 15.3471 14.0734C15.1357 14.1087 14.9242 14.1263 14.7128 14.1263C11.9464 14.1439 9.16244 14.1439 6.37847 14.1439C5.97321 14.1439 5.56795 14.1792 5.16269 14.2496C3.87642 14.4611 3.43591 14.9368 3.33019 16.2407C3.31257 16.4169 3.29496 16.6107 3.31258 16.6636H15.1004C15.3119 16.6636 15.5233 16.7164 15.7171 16.8398C16.281 17.1922 16.2281 17.7208 16.1929 18.1613C16.1929 18.2142 16.1752 18.2846 16.1752 18.3375C16.1576 18.6547 15.999 19.0775 15.3647 19.2009C15.1885 19.2361 14.9947 19.2361 14.8185 19.2361H3.27734C3.27734 19.289 3.27734 19.3418 3.29496 19.3947C3.31258 19.7823 3.36544 20.1524 3.43592 20.5224C3.5945 21.1215 3.9469 21.4915 4.5636 21.6677C5.33888 21.8791 6.13179 21.9144 6.81897 21.932C8.93338 21.9496 11.0654 21.9496 13.1798 21.9496H14.9418C15.3119 21.9496 15.7347 22.0025 15.999 22.4077C16.4043 23.0421 16.1929 23.8878 15.5585 24.2755C15.4704 24.3283 15.3823 24.3812 15.2766 24.3988C14.6247 24.6102 13.9727 24.6455 13.3913 24.6631C12.1226 24.6279 10.8364 24.6455 9.56771 24.6455ZM13.6203 11.8533H5.70891C5.55032 11.8709 5.37412 11.8885 5.1803 11.9062C4.6517 11.959 4.08786 12.0119 3.55926 12.1176C1.62105 12.5581 0.775284 13.492 0.528602 15.4654C0.510982 15.6769 0.475743 15.9059 0.458123 16.1174L0.422881 16.4345V19.7295C0.440501 19.8352 0.458123 19.9762 0.458123 20.0995C0.493363 20.3814 0.528605 20.681 0.563845 20.9629C0.863386 22.6897 1.69153 23.553 3.41829 23.9054C4.17596 24.064 4.95124 24.1521 5.72653 24.1697C8.26382 24.2226 10.8187 24.2226 13.356 24.1697C13.8846 24.1521 14.5189 24.1169 15.1004 23.9407C15.1533 23.9231 15.2238 23.8878 15.2766 23.8526C15.7171 23.5883 15.8405 23.0068 15.5762 22.5839C15.4352 22.3725 15.2238 22.3196 14.889 22.3196H13.127C10.9949 22.3196 8.88052 22.3196 6.74849 22.302C6.04369 22.302 5.21554 22.2668 4.3874 22.0377C3.62974 21.8263 3.154 21.3329 2.96018 20.5752C2.87208 20.1876 2.81921 19.8 2.81921 19.4123C2.80159 19.148 2.78397 19.0071 2.90731 18.8837C3.01303 18.7604 3.17161 18.7604 3.41829 18.7604H14.8185C14.9771 18.7604 15.1357 18.7604 15.2766 18.7251C15.6466 18.6547 15.7171 18.4608 15.7347 18.267C15.7347 18.1965 15.7524 18.1437 15.7524 18.0732C15.7876 17.6327 15.8052 17.3684 15.4881 17.1569C15.3823 17.0865 15.2414 17.0512 15.1004 17.0512H3.70022C3.3302 17.0512 3.11875 17.0512 2.97779 16.8926C2.83683 16.7341 2.85445 16.5402 2.88969 16.1526C3.01303 14.6549 3.5945 14.0206 5.07459 13.7739C5.49747 13.7034 5.92035 13.6682 6.36085 13.6682C9.14482 13.6682 11.9288 13.6506 14.6951 13.6506C14.889 13.6506 15.0828 13.6329 15.2766 13.6153C15.5057 13.5801 15.6819 13.4039 15.6995 13.1924C15.8228 12.4348 15.6114 12.1352 14.889 11.9943C14.607 11.9414 14.3075 11.9062 14.0256 11.8709C13.8846 11.8709 13.7437 11.8709 13.6203 11.8533Z" fill="white"/>
<path id="Vector_12" d="M34.218 17.897V22.9363C34.218 23.8173 33.848 24.2578 32.967 24.3459C32.1389 24.434 31.2931 24.3988 30.465 24.3635C29.9892 24.3459 29.6192 24.0816 29.3196 23.7292C26.8176 20.8395 24.3155 17.9498 21.8311 15.0601C21.6902 14.9015 21.5668 14.743 21.4259 14.602C21.3378 14.4963 21.232 14.4082 21.0735 14.461C20.9149 14.5139 20.9149 14.6725 20.9149 14.7958V23.2535C20.9149 24.1345 20.633 24.3988 19.7696 24.3988H19.0119C18.4833 24.3811 18.1838 24.0992 18.1309 23.5706C18.1133 23.412 18.1133 23.2358 18.1133 23.0773V13.0514C18.1661 12.329 18.5185 11.9061 19.2233 11.8004C20.122 11.6595 21.0206 11.7123 21.9368 11.7652C22.4126 11.7828 22.7474 12.0823 23.0645 12.4347C25.6547 15.4301 28.2448 18.4079 30.835 21.4034C30.8878 21.4738 30.9583 21.5267 31.0112 21.5972C31.0993 21.6677 31.1874 21.7381 31.2931 21.6853C31.3988 21.6324 31.4517 21.5267 31.4517 21.421V12.84C31.4517 12.0295 31.7336 11.7476 32.5617 11.7476H33.2666C33.9185 11.7652 34.2357 12.0647 34.2357 12.7167C34.218 14.4434 34.218 16.1702 34.218 17.897Z" fill="white"/>
<path id="Vector_13" d="M31.8041 24.6278C31.3813 24.6278 30.9584 24.6102 30.5531 24.5926H30.465C29.9893 24.575 29.5664 24.3459 29.1611 23.8878C26.6591 20.9981 24.1746 18.1084 21.6726 15.2187C21.5493 15.0601 21.4083 14.9192 21.2673 14.7606C21.1792 14.6725 21.1616 14.6549 21.144 14.6725C21.1264 14.6901 21.1264 14.7782 21.1264 14.8135V23.2359C21.1264 24.2402 20.7564 24.6102 19.752 24.6102H18.9767C18.3424 24.575 17.9548 24.2226 17.9019 23.5883C17.8843 23.4121 17.8843 23.2359 17.8843 23.0773V13.0338C17.9371 12.1881 18.3776 11.6947 19.1882 11.589C20.1044 11.448 21.0207 11.5009 21.9017 11.5537C22.5184 11.589 22.9236 11.9766 23.2055 12.2938C25.7957 15.2892 28.3858 18.267 30.976 21.2624C31.0289 21.3329 31.0817 21.3858 31.1346 21.4386C31.1698 21.4739 31.1874 21.4915 31.2051 21.4915C31.2051 21.4739 31.2227 21.4562 31.2227 21.4386V12.8576C31.2227 11.9238 31.6103 11.5361 32.5442 11.5361H33.249C34.0243 11.5537 34.4295 11.959 34.4295 12.7167V22.9363C34.4295 23.9407 33.9714 24.4516 32.9847 24.575C32.597 24.6102 32.1918 24.6278 31.8041 24.6278ZM21.1616 14.2496C21.3731 14.2496 21.514 14.4082 21.5845 14.4787C21.7255 14.6373 21.8664 14.7782 22.0074 14.9368C24.5094 17.8265 27.0115 20.7162 29.4959 23.6059C29.8131 23.9759 30.1302 24.1521 30.4826 24.1521H30.5707C31.3636 24.1873 32.1742 24.2226 32.9494 24.1345C33.7071 24.0464 34.0067 23.7116 34.0067 22.9363V12.7167C34.0067 12.1881 33.7776 11.9766 33.249 11.959H32.5442C31.8394 11.959 31.6456 12.1352 31.6456 12.84V21.4034C31.6632 21.5796 31.5575 21.7734 31.3813 21.8615C31.117 21.9848 30.9231 21.8086 30.8527 21.7558C30.7822 21.6853 30.7117 21.6148 30.6412 21.5443C28.0511 18.5665 25.4609 15.5711 22.8884 12.5757C22.5536 12.1704 22.2541 11.9942 21.9193 11.9766C21.0207 11.9238 20.122 11.8885 19.2586 12.0119C18.6596 12.1 18.3776 12.4171 18.3248 13.0515V23.0597C18.3248 23.2182 18.3248 23.3768 18.3424 23.5354C18.3776 23.9583 18.5891 24.1521 19.012 24.1697C19.1882 24.1873 19.3644 24.1697 19.5406 24.1697H19.752C20.5097 24.1697 20.6859 23.9935 20.6859 23.2359V14.8311C20.6859 14.6901 20.6859 14.3906 20.9854 14.2849C21.0559 14.2496 21.1088 14.2496 21.1616 14.2496Z" fill="white"/>
<path id="Vector_14" d="M56.666 18.2317V13.2981C56.666 12.2585 57.0537 11.8004 58.0756 11.7475C58.8333 11.6947 59.591 11.7299 60.3486 11.7475C60.8244 11.7651 61.212 12.0118 61.5292 12.3642C64.0664 15.2892 66.5861 18.2141 69.1234 21.139C69.2468 21.28 69.3701 21.4209 69.4934 21.5443C69.5815 21.6324 69.6873 21.7381 69.8282 21.6676C69.9516 21.6148 69.9692 21.4914 69.9692 21.3681V12.8576C69.9692 12.0118 70.2511 11.7299 71.0792 11.7299H71.784C72.436 11.7299 72.7531 12.0471 72.7531 12.699V22.9715C72.7531 23.7997 72.3831 24.2578 71.5726 24.3459C70.7268 24.4516 69.8635 24.4164 69.0177 24.3811C68.5419 24.3635 68.1719 24.0816 67.8548 23.7292C65.2822 20.7514 62.6921 17.756 60.1195 14.7782C60.0843 14.7429 60.0491 14.6901 59.9962 14.6548C59.8905 14.5491 59.7848 14.4434 59.6262 14.4963C59.4676 14.5491 59.4676 14.7253 59.4676 14.8663V23.412C59.4676 24.0992 59.1504 24.4164 58.4633 24.4164H57.6175C57.0008 24.3987 56.6836 24.0816 56.6836 23.4649C56.666 21.7205 56.666 19.9761 56.666 18.2317Z" fill="white"/>
<path id="Vector_15" d="M70.3573 24.6279C69.9344 24.6279 69.5115 24.6102 69.1062 24.5926H69.0005C68.5072 24.575 68.1019 24.3459 67.679 23.8702C65.1065 20.8924 62.5163 17.897 59.9438 14.9192L59.9086 14.8663C59.891 14.8487 59.8557 14.8135 59.8381 14.7959C59.7324 14.6901 59.7147 14.6901 59.6971 14.6901C59.6795 14.7078 59.6795 14.7959 59.6795 14.8487V23.3945C59.6795 24.205 59.2566 24.6102 58.4637 24.6102H57.618C56.8779 24.5926 56.4727 24.1697 56.4727 23.4473V13.2981C56.4727 12.1176 56.966 11.589 58.0937 11.5185C58.8866 11.4657 59.6795 11.5009 60.3843 11.5185C60.8777 11.5361 61.3358 11.7652 61.7234 12.2057L69.3177 20.9805C69.441 21.1215 69.5467 21.2448 69.6701 21.3858C69.6877 21.4034 69.7406 21.4562 69.7582 21.4562C69.7582 21.4562 69.7582 21.421 69.7758 21.3505V12.8576C69.7758 11.8885 70.1458 11.5185 71.1149 11.5185H71.8197C72.595 11.5185 73.0003 11.9414 73.0003 12.7167V22.9716C73.0003 23.9231 72.5422 24.4517 71.6259 24.575C71.1678 24.6102 70.7625 24.6279 70.3573 24.6279ZM59.6971 14.2496C59.9086 14.2496 60.0495 14.3906 60.1376 14.4787C60.1729 14.5139 60.2081 14.5492 60.2433 14.5844L60.2786 14.6197C62.8687 17.5974 65.4413 20.5752 68.0138 23.5707C68.3486 23.9583 68.6657 24.1345 69.0181 24.1521H69.1239C69.9168 24.1874 70.7449 24.2226 71.5378 24.1169C72.2426 24.0288 72.5422 23.6764 72.5422 22.954V12.6991C72.5422 12.1705 72.3307 11.9414 71.7845 11.9414H71.0797C70.3749 11.9414 70.1811 12.1352 70.1811 12.8576V21.3681C70.1811 21.4739 70.1811 21.7382 69.9168 21.8615C69.6349 22.0025 69.4234 21.791 69.3353 21.7029C69.1944 21.562 69.071 21.421 68.9477 21.28L61.3534 12.5052C61.0362 12.1528 60.7191 11.9766 60.3314 11.959C59.6443 11.9414 58.8514 11.9238 58.0761 11.959C57.1775 12.0119 56.8603 12.3467 56.8603 13.2981V23.4473C56.8603 23.9407 57.0717 24.1697 57.5827 24.1697H58.4285C58.9923 24.1697 59.2038 23.9583 59.2038 23.3768V14.8487C59.2038 14.6901 59.2038 14.3906 59.5033 14.2673C59.5914 14.2496 59.6443 14.2496 59.6971 14.2496Z" fill="white"/>
<path id="Vector_16" d="M45.6007 16.2055V12.6991C45.6007 12.0295 45.9002 11.73 46.5522 11.73H47.5213C48.0323 11.7476 48.3142 11.9943 48.3847 12.4876C48.4023 12.6286 48.4199 12.7696 48.4199 12.9281V18.7252C48.4199 19.5004 48.367 20.2757 48.2613 21.051C47.9618 22.9187 47.0455 23.8526 45.0897 24.2226C44.3497 24.3636 43.592 24.4517 42.8343 24.4517C41.178 24.4693 39.5394 24.5222 37.8831 24.3988C37.425 24.3636 36.9668 24.3283 36.544 24.1521C36.033 23.9407 35.8392 23.5178 35.9449 22.8483C36.0154 22.4078 36.3501 22.1787 36.8964 22.1611C38.5879 22.1611 40.297 22.1611 41.9886 22.1434C42.5524 22.1434 43.1163 22.0906 43.6625 21.9849C45.0016 21.7029 45.495 21.1215 45.5478 19.7295C45.5655 19.1304 45.5831 18.549 45.6007 17.9499V16.2055Z" fill="white"/>
<path id="Vector_17" d="M40.2618 24.6984C39.4689 24.6984 38.6584 24.6808 37.8655 24.6279C37.3898 24.5927 36.914 24.5574 36.4559 24.3636C36.033 24.1874 35.5573 23.7821 35.7335 22.813C35.7863 22.4959 36.0154 21.9673 36.8964 21.9496H38.9756C39.9799 21.9496 40.9843 21.9496 42.0062 21.932C42.5524 21.932 43.1163 21.8792 43.6449 21.7734C44.8959 21.5091 45.3012 21.0158 45.354 19.7295C45.3717 19.1304 45.3893 18.549 45.4069 17.9675V12.6991C45.4069 11.9238 45.7945 11.5186 46.5698 11.5186H47.5389C48.1556 11.5362 48.5257 11.871 48.6138 12.47C48.6314 12.6286 48.649 12.7872 48.649 12.9458V18.7428C48.649 19.5181 48.5961 20.311 48.4728 21.0863C48.1733 23.0421 47.1689 24.0464 45.125 24.4517C44.3673 24.5927 43.592 24.6808 42.8344 24.6808L41.9181 24.6984C41.3543 24.6984 40.8081 24.6984 40.2618 24.6984ZM41.9886 22.3901C40.9843 22.3901 39.9799 22.4078 38.958 22.4078H36.8788C36.2268 22.4078 36.174 22.7954 36.1564 22.9011C36.033 23.6236 36.3326 23.8526 36.6145 23.976C37.0197 24.1345 37.4426 24.1874 37.8831 24.205C39.2223 24.2931 40.579 24.2755 41.9005 24.2579L42.8168 24.2403C43.5568 24.2403 44.2968 24.1698 45.0369 24.0112C46.887 23.6412 47.7504 22.7778 48.0323 21.0158C48.138 20.2581 48.2085 19.5005 48.1909 18.7252V12.9282C48.1909 12.7872 48.1909 12.6639 48.1556 12.5229C48.0852 12.1353 47.8913 11.9591 47.4861 11.9414H46.5346C46.006 11.9414 45.7945 12.1529 45.7945 12.6991V17.9851C45.7945 18.5842 45.7593 19.1657 45.7417 19.7648C45.6888 21.2448 45.125 21.9144 43.6801 22.2316C43.1339 22.3373 42.5525 22.3901 41.9886 22.3901Z" fill="white"/>
<path id="Vector_18" d="M53.9174 18.0732V23.324C53.9174 24.1345 53.6354 24.3988 52.8249 24.3988H52.0144C51.4329 24.3812 51.1158 24.064 51.0981 23.4826V12.8753C51.0981 12.0119 51.3801 11.73 52.2258 11.73H52.9483C53.6002 11.7476 53.9174 12.0648 53.9174 12.6991V18.0732Z" fill="white"/>
<path id="Vector_19" d="M52.2787 24.6279H51.9968C51.3096 24.5927 50.9044 24.205 50.8691 23.5002V12.8753C50.8691 11.8886 51.2392 11.5186 52.2083 11.5186H52.9307C53.6884 11.5362 54.1112 11.9591 54.1112 12.7167V23.324C54.1112 24.2403 53.7412 24.6279 52.8073 24.6279H52.2787ZM52.9483 11.9591H52.2259C51.5035 11.9591 51.3096 12.1353 51.3096 12.8753V23.4826C51.3273 23.9583 51.5563 24.1698 52.0144 24.1874H52.825C53.5122 24.1874 53.6884 24.0112 53.6884 23.324V12.7167C53.6884 12.1881 53.4769 11.9591 52.9483 11.9591Z" fill="white"/>
</g>
</svg>
