<svg width="25" height="25" viewBox="0 0 25 25" fill="none" xmlns="http://www.w3.org/2000/svg">
<path id="Subtract" fill-rule="evenodd" clip-rule="evenodd" d="M12.5 0C5.59644 0 0 5.59644 0 12.5C0 19.4036 5.59644 25 12.5 25C19.4036 25 25 19.4036 25 12.5C25 5.59644 19.4036 0 12.5 0ZM4.6875 10.3516C4.6875 7.66685 6.64062 5.66406 11.3281 5.66406H15.8691C20.1172 5.66406 20.3125 6.17671 20.3125 7.03125C20.3125 8.00776 19.9219 8.39844 18.9453 8.39844H11.3281C8.98438 8.39844 7.8125 9.56763 7.8125 10.7422V11.1328H18.9453C19.7266 11.1328 20.3125 11.6455 20.3125 12.5C20.3125 13.3545 19.7266 13.8672 18.9453 13.8672H7.8125V14.2578C7.8125 15.4324 8.98438 16.6016 11.3281 16.6016H18.9453C19.9219 16.6016 20.3125 16.9922 20.3125 17.9688C20.3125 18.8233 20.1172 19.3359 15.8691 19.3359H11.3281C6.64062 19.3359 4.6875 17.3332 4.6875 14.6484V10.3516Z" fill="white"/>
</svg>
