<svg width="65" height="65" viewBox="0 0 65 65" fill="none" xmlns="http://www.w3.org/2000/svg">
<path id="Vector" d="M32.5 0C23.8805 0 15.6151 3.42456 9.52116 9.52116C3.42456 15.6147 0 23.8805 0 32.5C0 41.1195 3.42456 49.3849 9.52116 55.4788C15.6147 61.5754 23.8805 65 32.5 65C41.1195 65 49.3849 61.5754 55.4788 55.4788C61.5754 49.3853 65 41.1195 65 32.5C64.9909 23.8836 61.5633 15.6237 55.4695 9.53052C49.3757 3.43735 41.1164 0.0093597 32.5 0ZM32.5 51.9994C31.1868 51.9994 30.0017 51.2072 29.4989 49.9946C28.9931 48.7789 29.2734 47.3804 30.2027 46.4512C31.132 45.5219 32.5304 45.2446 33.7431 45.7474C34.9587 46.2501 35.7509 47.4353 35.7509 48.7485C35.7509 49.6108 35.4066 50.4395 34.7972 51.0488C34.1878 51.6581 33.3623 51.9994 32.5 51.9994ZM35.7509 38.9988C35.7509 40.7933 34.2946 42.2497 32.5 42.2497C30.7054 42.2497 29.2491 40.7933 29.2491 38.9988V16.2516C29.2491 14.457 30.7054 13.0006 32.5 13.0006C34.2946 13.0006 35.7509 14.457 35.7509 16.2516V39.0019V38.9988Z" fill="#4B4B4B"/>
</svg>
