<svg width="1696" height="512" viewBox="0 0 1696 512" fill="none" xmlns="http://www.w3.org/2000/svg">
<path fill-rule="evenodd" clip-rule="evenodd" d="M256 0C114.615 0 0 114.615 0 256C0 397.385 114.615 512 256 512C397.385 512 512 397.385 512 256C512 114.615 397.385 0 256 0ZM96 212C96 157.017 136 116 232 116L325 116C412 116 416 126.499 416 144C416 163.999 408 172 388 172H232C184 172 160 195.945 160 220V228H388C404 228 416 238.5 416 256C416 273.5 404 284 388 284H160L160 292C160 316.055 184 340 232 340H388C408 340 416 348.001 416 368C416 385.501 412 396 325 396H232C136 396 96 354.983 96 300V212Z" fill="white"/>
<path d="M1391.33 151C1380.79 151 1376 156.469 1376 168.5V343.5C1376 355.531 1380.79 361 1391.33 361H1408.67C1419.21 361 1424 355.531 1424 343.5V168.5C1424 156.469 1419.21 151 1408.67 151H1391.33Z" fill="white"/>
<path d="M1032.46 342.406C1045.41 358.984 1060.35 361 1076.54 361H1089.01C1107.22 361 1112 346.781 1112 338.031L1112 168.5C1112 156.469 1107.21 151 1096.67 151L1079.33 151C1068.79 151 1064 156.469 1064 168.5L1064 306.312L959.542 169.594C946.585 153.016 931.654 151 915.458 151H902.991C884.784 151 880 165.219 880 173.969V343.5C880 355.531 884.792 361 895.333 361H912.667C923.208 361 928 355.531 928 343.5V205.688L1032.46 342.406Z" fill="white"/>
<path d="M1616.46 342.406C1629.41 358.984 1644.35 361 1660.54 361H1673.01C1691.22 361 1696 346.781 1696 338.031L1696 168.5C1696 156.469 1691.21 151 1680.67 151L1663.33 151C1652.79 151 1648 156.469 1648 168.5L1648 306.312L1543.54 169.594C1530.59 153.016 1515.65 151 1499.46 151H1486.99C1468.78 151 1464 165.219 1464 173.969V343.5C1464 355.531 1468.79 361 1479.33 361H1496.67C1507.21 361 1512 355.531 1512 343.5V205.688L1616.46 342.406Z" fill="white"/>
<path d="M710 151C638 151 608 181.763 608 223L608 289C608 330.237 638 361 710 361L779.75 361C845 361 848 353.126 848 340C848 325.001 842 319 827 319L710 319C674 319 656 301.041 656 283L656 277L827 277C839 277 848 269.125 848 256C848 242.875 839 235 827 235L656 235L656 229C656 210.959 674 193 710 193L827 193C842 193 848 186.999 848 172C848 158.874 845 151 779.75 151L710 151Z" fill="white"/>
<path d="M1288 281.266V168.5C1288 156.469 1292.79 151 1303.33 151H1320.67C1331.21 151 1336 156.469 1336 168.5V286.333C1336 327.571 1306.49 361 1269.88 361H1212.25C1147 361 1144 353.126 1144 340C1144 325.001 1150 319 1165 319H1258C1274.02 319 1288 299.307 1288 281.266Z" fill="white"/>
</svg>
